 <svg  version="1.0" xmlns="http://www.w3.org/2000/svg"  width="300.000000pt" height="253.000000pt" viewBox="0 0 300.000000 253.000000"  preserveAspectRatio="xMidYMid meet">  <g transform="translate(0.000000,253.000000) scale(0.100000,-0.100000)" fill="#3db611" stroke="none"> <path d="M2486 2514 c-138 -33 -332 -149 -433 -258 -134 -145 -202 -305 -223 -526 -5 -57 -8 -105 -6 -108 3 -2 20 27 39 64 79 156 200 321 376 512 115 126 188 182 85 67 -177 -200 -302 -406 -380 -630 -15 -44 -31 -85 -35 -91 -13 -16 95 -35 237 -41 349 -16 607 136 792 465 l41 73 -24 9 c-85 32 -157 44 -284 44 -88 1 -135 -3 -138 -10 -2 -7 25 -11 84 -10 81 0 238 -18 273 -31 8 -3 20 -7 25 -8 6 -1 13 -3 18 -3 9 -2 -54 -123 -94 -179 -68 -96 -241 -243 -286 -243 -7 0 -13 -4 -13 -9 0 -8 -70 -33 -130 -47 -126 -29 -250 -36 -355 -18 -44 7 -86 13 -93 13 -13 1 -10 28 10 86 16 46 60 150 96 225 23 48 175 279 204 310 60 64 128 154 125 163 -7 22 -25 16 -73 -22 -47 -37 -203 -201 -234 -245 -8 -12 -24 -30 -35 -42 -12 -12 -48 -61 -81 -110 -32 -49 -62 -91 -65 -94 -3 -3 -12 -20 -20 -37 -14 -33 -29 -44 -29 -20 0 6 5 32 11 57 6 25 12 54 13 65 2 11 6 27 9 35 3 8 13 40 23 70 9 30 21 61 27 68 5 7 17 26 26 43 30 55 113 153 175 206 97 81 317 188 375 181 l26 -3 -3 -125 c-2 -69 -8 -132 -13 -142 -5 -9 -9 -32 -9 -50 0 -19 -4 -38 -10 -44 -5 -5 -6 -15 0 -24 12 -20 17 -13 35 55 28 104 33 377 7 374 -4 0 -33 -7 -66 -15z"/> <path d="M1479 1736 c-8 -8 -344 -240 -747 -516 -653 -448 -821 -567 -680 -487 75 43 510 268 513 265 1 -2 19 -217 39 -478 20 -261 40 -483 44 -493 4 -10 6 215 4 500 l-3 518 163 84 c90 47 281 147 426 222 l262 137 128 -67 c70 -37 213 -112 317 -165 105 -54 239 -124 298 -155 l108 -56 -3 -518 c-2 -284 0 -507 4 -495 4 13 16 140 27 283 11 143 28 354 37 470 9 116 18 211 19 213 3 3 413 -209 503 -260 65 -37 81 -30 20 8 -23 15 -119 80 -213 144 -93 65 -350 241 -570 392 -220 151 -458 315 -530 365 -162 111 -149 105 -166 89z m53 -44 c34 -21 164 -108 198 -133 27 -20 176 -123 355 -245 61 -41 117 -80 125 -87 8 -7 53 -37 99 -67 46 -30 90 -61 98 -68 7 -7 13 -11 13 -7 0 3 10 -4 23 -16 12 -11 67 -50 122 -86 113 -74 93 -75 -34 -2 l-85 49 -21 -20 c-12 -11 -22 -34 -22 -52 -9 -181 -17 -279 -23 -283 -4 -3 -8 80 -8 184 1 157 -2 192 -14 205 -9 8 -110 63 -224 122 -115 59 -270 140 -345 178 -74 39 -170 89 -212 111 l-77 40 -83 -44 c-45 -23 -145 -75 -222 -114 -77 -40 -142 -74 -145 -77 -3 -3 -90 -48 -193 -100 -103 -52 -197 -104 -208 -116 -18 -19 -20 -35 -20 -168 0 -80 -4 -146 -8 -146 -8 0 -21 128 -21 204 0 38 -19 65 -48 66 -7 0 -52 -23 -101 -50 -124 -70 -132 -62 -16 15 54 36 111 77 127 90 16 14 34 25 39 25 5 0 17 7 26 15 21 17 285 199 453 311 63 43 133 91 154 108 21 16 51 37 66 45 45 26 175 115 178 124 5 11 24 7 54 -11z m-905 -994 c-3 -8 -6 -5 -6 6 -1 11 2 17 5 13 3 -3 4 -12 1 -19z"/> <path d="M2301 194 c0 -11 3 -14 6 -6 3 7 2 16 -1 19 -3 4 -6 -2 -5 -13z"/> </g> </svg> 